<?xml version="1.0" encoding="UTF-8" standalone="no"?>
<svg width="212px" height="117px" viewBox="0 0 212 117" version="1.1" xmlns="http://www.w3.org/2000/svg" xmlns:xlink="http://www.w3.org/1999/xlink">
    <!-- Generator: Sketch 3.8.3 (29802) - http://www.bohemiancoding.com/sketch -->
    <title>edirect TODO</title>
    <desc>Created with Sketch.</desc>
    <defs>
        <polygon id="path-1" points="0 0.184276667 0 31.4660767 34.0452279 31.4660767 34.0452279 0.184276667 0 0.184276667"></polygon>
        <polygon id="path-3" points="0.391066047 43.2666667 36.8018195 43.2666667 36.8018195 0.791386667 0.391066047 0.791386667"></polygon>
        <polygon id="path-5" points="0 116.175327 211.842233 116.175327 211.842233 0.000393333333 0 0.000393333333"></polygon>
    </defs>
    <g id="Page-1" stroke="none" stroke-width="1" fill="none" fill-rule="evenodd">
        <g id="Home" transform="translate(-1105.000000, -1709.000000)">
            <g id="Group-26" transform="translate(0.000000, 1630.000000)">
                <g id="Group-10">
                    <g id="Group-12">
                        <g id="Group-17" transform="translate(370.000000, 20.000000)">
                            <g id="Group-2" transform="translate(618.000000, 0.000000)">
                                <g id="edirect-dev-center" transform="translate(117.000000, 59.000000)">
                                    <g id="edirect-hk">
                                        <g id="Group-3" transform="translate(0.000000, 84.708660)">
                                            <mask id="mask-2" fill="white">
                                                <use xlink:href="#path-1"></use>
                                            </mask>
                                            <g id="Clip-2"></g>
                                            <path d="M23.808093,12.98531 C23.6049674,11.0717433 22.8772651,9.55937667 21.6269581,8.44821 C20.372707,7.34097667 18.8186977,6.78637667 16.960986,6.78637667 C15.0638326,6.78637667 13.4979907,7.35081 12.2654326,8.47771 C11.0328744,9.60854333 10.3170047,11.1110767 10.1158512,12.98531 L23.808093,12.98531 Z M17.0832558,31.4660767 C14.416986,31.4660767 12.0248372,31.0550433 9.90483721,30.2329767 C7.78483721,29.4089433 5.98826047,28.28991 4.51313488,26.87391 C3.0380093,25.4598767 1.91786047,23.82361 1.15071628,21.9670767 C0.383572093,20.1105433 -0.000986046512,18.1694433 -0.000986046512,16.1398433 C-0.000986046512,13.9607767 0.383572093,11.9036433 1.15071628,9.97237667 C1.91786047,8.04111 3.03012093,6.34584333 4.4815814,4.89051 C5.93501395,3.43714333 7.72370233,2.29057667 9.84567442,1.44687667 C11.9637023,0.60711 14.3755721,0.184276667 17.0832558,0.184276667 C19.7889674,0.184276667 22.1909767,0.60711 24.2932279,1.44687667 C26.3915349,2.29057667 28.1683907,3.42731 29.6237953,4.86101 C31.0772279,6.29667667 32.1756837,7.95261 32.923107,9.82684333 C33.6705302,11.7030433 34.0452279,13.6736433 34.0452279,15.7386433 C34.0452279,16.27751 34.0235349,16.8006433 33.9860651,17.3178767 C33.9446512,17.83511 33.8835163,18.2854767 33.8026605,18.6689767 L10.2992558,18.6689767 C10.4589953,20.6946433 11.2379721,22.2345433 12.6302698,23.28671 C14.0245395,24.3408433 15.6081302,24.8659433 17.384986,24.8659433 C18.7970047,24.8659433 20.161693,24.5414433 21.475107,23.8904767 C22.7865488,23.23951 23.6661023,22.36041 24.1098233,21.2492433 L32.3492279,23.4302767 C31.0969488,25.8040433 29.1583814,27.73531 26.5335256,29.2299767 C23.9086698,30.72071 20.7572651,31.4660767 17.0832558,31.4660767 L17.0832558,31.4660767 Z" id="Fill-1" fill="#195B91" mask="url(#mask-2)"></path>
                                        </g>
                                        <g id="Group-6" transform="translate(37.469767, 72.908660)">
                                            <mask id="mask-4" fill="white">
                                                <use xlink:href="#path-3"></use>
                                            </mask>
                                            <g id="Clip-5"></g>
                                            <path d="M18.0215777,35.5187867 C19.3547126,35.5187867 20.6267126,35.14512 21.8375777,34.3997533 C23.0504149,33.65242 23.9989916,32.6277867 24.68528,31.32782 L24.68528,25.01482 C24.0778753,23.4847533 23.0997172,22.23002 21.7468614,21.2545533 C20.3940056,20.27712 18.9918474,19.7913533 17.5364428,19.7913533 C16.4853172,19.7913533 15.5288521,20.0135867 14.6591591,20.4501867 C13.789466,20.8926867 13.0321823,21.4767867 12.3873079,22.20052 C11.7404614,22.9281867 11.245466,23.7718867 10.9023219,24.72572 C10.5591777,25.6854533 10.3895777,26.6982867 10.3895777,27.7681533 C10.3895777,30.0278533 11.095587,31.88242 12.5076056,33.3377533 C13.9215963,34.79112 15.759587,35.5187867 18.0215777,35.5187867 M15.4164428,43.2674533 C13.2353079,43.2674533 11.2277172,42.87412 9.38775442,42.0913867 C7.54976372,41.3066867 5.96617302,40.20732 4.63303814,38.7893533 C3.29990326,37.37532 2.26061023,35.7193867 1.51318698,33.82352 C0.765763721,31.9315867 0.391066047,29.8567533 0.391066047,27.5950867 C0.391066047,25.41602 0.734210233,23.36872 1.4224707,21.4551533 C2.10875907,19.5415867 3.07902884,17.8895867 4.32933581,16.48932 C5.58161488,15.0929867 7.06462884,13.99362 8.78232186,13.19122 C10.5000149,12.3848867 12.3873079,11.9836867 14.4481451,11.9836867 C16.62928,11.9836867 18.6270102,12.48322 20.44528,13.4763867 C22.2615777,14.4734867 23.6558474,15.81082 24.6261172,17.4942867 L24.6261172,0.791386667 L34.3189544,0.791386667 L34.3189544,32.36032 C34.3189544,33.2787533 34.4984149,33.9218533 34.8632521,34.28372 C35.2261172,34.64952 35.8709916,34.86782 36.8018195,34.94452 L36.8018195,42.6931867 C35.7901358,42.8839533 34.9145265,43.00982 34.1671033,43.0668533 C33.4177079,43.12192 32.7432521,43.1533867 32.1358474,43.1533867 C28.7438474,43.0766867 26.8033079,41.7963867 26.3201451,39.3065867 L26.1387126,37.69982 C24.9692614,39.5740533 23.434973,40.9703867 21.5358474,41.88882 C19.6367219,42.80922 17.5956056,43.2674533 15.4164428,43.2674533" id="Fill-4" fill="#195B91" mask="url(#mask-4)"></path>
                                        </g>
                                        <mask id="mask-6" fill="white">
                                            <use xlink:href="#path-5"></use>
                                        </mask>
                                        <g id="Clip-8"></g>
                                        <path d="M79.6015628,115.60106 L89.2944,115.60106 L89.2944,85.4658267 L79.6015628,85.4658267 L79.6015628,115.60106 Z M79.6015628,82.0221933 L89.2944,82.0221933 L89.2944,73.69926 L79.6015628,73.69926 L79.6015628,82.0221933 Z" id="Fill-7" fill="#195B91" mask="url(#mask-6)"></path>
                                        <path d="M116.008175,93.3301333 C113.663356,93.3694667 111.555189,93.7333 109.677756,94.4196667 C107.800324,95.1099667 106.415914,96.1424667 105.528473,97.5211 L105.528473,115.602633 L95.8356353,115.602633 L95.8356353,85.4674 L104.739635,85.4674 L104.739635,91.5503 C105.869645,89.5246333 107.295468,87.9454 109.009217,86.8165333 C110.72691,85.6876667 112.55504,85.0858667 114.493607,85.0091667 C115.302166,85.0091667 115.805049,85.0268667 116.008175,85.0662 L116.008175,93.3301333 Z" id="Fill-9" fill="#195B91" mask="url(#mask-6)"></path>
                                        <path d="M141.460205,97.69397 C141.257079,95.7804033 140.529377,94.2680367 139.27907,93.15687 C138.024819,92.0496367 136.470809,91.4950367 134.613098,91.4950367 C132.715944,91.4950367 131.150102,92.05947 129.917544,93.18637 C128.684986,94.3172033 127.969116,95.8197367 127.767963,97.69397 L141.460205,97.69397 Z M134.735367,116.174737 C132.069098,116.174737 129.676949,115.763703 127.556949,114.941637 C125.436949,114.117603 123.640372,112.99857 122.165247,111.58257 C120.690121,110.168537 119.569972,108.53227 118.802828,106.675737 C118.035684,104.819203 117.651126,102.878103 117.651126,100.848503 C117.651126,98.6694367 118.035684,96.6123033 118.802828,94.6810367 C119.569972,92.74977 120.682233,91.0545033 122.133693,89.59917 C123.587126,88.1458033 125.375814,86.9992367 127.497786,86.1555367 C129.615814,85.31577 132.027684,84.8929367 134.735367,84.8929367 C137.441079,84.8929367 139.843088,85.31577 141.94534,86.1555367 C144.043647,86.9992367 145.820502,88.13597 147.275907,89.56967 C148.72934,91.0053367 149.827795,92.66127 150.575219,94.5355033 C151.322642,96.4117033 151.69734,98.3823033 151.69734,100.447303 C151.69734,100.98617 151.675647,101.509303 151.638177,102.026537 C151.596763,102.54377 151.535628,102.994137 151.454772,103.377637 L127.951367,103.377637 C128.111107,105.403303 128.890084,106.943203 130.282381,107.99537 C131.676651,109.049503 133.260242,109.574603 135.037098,109.574603 C136.449116,109.574603 137.813805,109.250103 139.127219,108.599137 C140.43866,107.94817 141.318214,107.06907 141.761935,105.957903 L150.00134,108.138937 C148.74906,110.512703 146.810493,112.44397 144.185637,113.938637 C141.560781,115.42937 138.409377,116.174737 134.735367,116.174737 L134.735367,116.174737 Z" id="Fill-10" fill="#195B91" mask="url(#mask-6)"></path>
                                        <path d="M154.898441,100.504533 C154.898441,98.4395333 155.282999,96.4591 156.048171,94.5652 C156.817287,92.6713 157.927576,91.0055333 159.381008,89.5698667 C160.834441,88.1361667 162.621157,86.9994333 164.743129,86.1557333 C166.863129,85.314 169.274999,84.8931333 171.980711,84.8931333 C175.656692,84.8931333 178.74499,85.6306333 181.249548,87.1017 C183.752134,88.5747333 185.633511,90.4981333 186.883818,92.8719 L177.433548,95.5701667 C176.181269,93.6566 174.343278,92.7008 171.919576,92.7008 C169.900153,92.7008 168.214013,93.4068333 166.863129,94.8248 C165.510273,96.2388333 164.833846,98.1327333 164.833846,100.504533 C164.833846,101.6924 165.013306,102.7721 165.378143,103.749533 C165.741008,104.725 166.245864,105.5569 166.894683,106.2472 C167.539557,106.933567 168.296841,107.470467 169.166534,107.853967 C170.032283,108.237467 170.95325,108.428233 171.919576,108.428233 C173.132413,108.428233 174.242701,108.148967 175.254385,107.594367 C176.262125,107.041733 177.009548,106.3239 177.494683,105.440867 L186.944953,108.198133 C185.771557,110.5306 183.905957,112.444167 181.342236,113.938833 C178.776543,115.429567 175.656692,116.174933 171.980711,116.174933 C169.314441,116.174933 166.922292,115.7462 164.802292,114.8848 C162.682292,114.0234 160.885715,112.876833 159.41059,111.441167 C157.935464,110.0055 156.817287,108.339733 156.048171,106.4478 C155.282999,104.551933 154.898441,102.5715 154.898441,100.504533" id="Fill-11" fill="#195B91" mask="url(#mask-6)"></path>
                                        <path d="M211.841444,113.994687 C210.510281,114.531587 208.993741,115.029153 207.297741,115.48542 C205.603713,115.94562 203.8663,116.17572 202.089444,116.17572 C200.876607,116.17572 199.734765,116.032153 198.667862,115.74502 C197.595044,115.457887 196.656327,114.999653 195.849741,114.368353 C195.041183,113.737053 194.404197,112.905153 193.940755,111.870687 C193.477313,110.83622 193.244607,109.595253 193.244607,108.13992 L193.244607,92.4124867 L189.186039,92.4124867 L189.186039,85.46622 L193.244607,85.46622 L193.244607,75.8826533 L202.937444,75.8826533 L202.937444,85.46622 L209.419713,85.46622 L209.419713,92.4124867 L202.937444,92.4124867 L202.937444,104.98342 C202.937444,105.978553 203.211565,106.696387 203.755862,107.13692 C204.298188,107.575487 204.976588,107.795753 205.785146,107.795753 C206.469462,107.795753 207.197165,107.681687 207.966281,107.44962 C208.731453,107.221487 209.419713,106.97172 210.025146,106.704253 L211.841444,113.994687 Z" id="Fill-12" fill="#195B91" mask="url(#mask-6)"></path>
                                        <polygon id="Fill-13" fill="#195B91" mask="url(#mask-6)" points="83.7015442 58.51148 64.915386 39.7770133 83.7015442 21.04058 102.487702 39.7770133"></polygon>
                                        <polygon id="Fill-14" fill="#195B91" mask="url(#mask-6)" points="125.900193 58.51148 107.114035 39.7770133 125.900193 21.04058 144.686352 39.7770133"></polygon>
                                        <polygon id="Fill-15" fill="#FFC12C" mask="url(#mask-6)" points="104.80077 37.47031 86.0146121 18.7358433 104.80077 -0.00059 123.586928 18.7358433"></polygon>
                                    </g>
                                </g>
                            </g>
                        </g>
                    </g>
                </g>
            </g>
        </g>
    </g>
</svg>
